<?xml version="1.0" encoding="UTF-8"?>
<svg version="1.1" xmlns="http://www.w3.org/2000/svg" width="200" height="74">
<path d="M0 0 C0.99 0.66 1.98 1.32 3 2 C3.969375 2.309375 4.93875 2.61875 5.9375 2.9375 C9.98003378 4.34001172 12.23286807 5.54244933 14.25 9.375 C15.03047023 12.1066458 15.30513096 14.17753866 15 17 C14.34 17.66 13.68 18.32 13 19 C12.29663541 22.59047368 11.74035193 26.16938419 11.23242188 29.79101562 C11.05743164 30.9134668 11.05743164 30.9134668 10.87890625 32.05859375 C10.73304077 33.08424438 10.73304077 33.08424438 10.58422852 34.13061523 C9.83351207 36.53271962 9.03379583 37.51609278 7 39 C3.38500337 39.63599654 -0.27283494 39.46332403 -3.9375 39.4375 C-5.44086914 39.4674707 -5.44086914 39.4674707 -6.97460938 39.49804688 C-14.14164006 39.49326567 -14.14164006 39.49326567 -17.58984375 37.51171875 C-19.60760901 33.91774906 -20.09458644 30.42790358 -20.625 26.375 C-21.12267288 20.67680454 -21.12267288 20.67680454 -24 16 C-23.61644958 11.26954482 -21.71954596 7.59672125 -18.25 4.375 C-12.25563217 0.71177522 -7.05904883 -1.05338519 0 0 Z M-17 19 C-16.71125 21.248125 -16.4225 23.49625 -16.125 25.8125 C-15.96257813 27.07707031 -15.80015625 28.34164062 -15.6328125 29.64453125 C-15.20431547 33.11699317 -15.20431547 33.11699317 -13 36 C-10.08669922 36.24869641 -7.40579705 36.32634278 -4.5 36.25 C-3.32244141 36.24226563 -3.32244141 36.24226563 -2.12109375 36.234375 C2.07407825 36.26650036 2.07407825 36.26650036 6 35 C6.47721984 32.28691681 6.83986541 29.67026185 7.125 26.9375 C7.41375 24.318125 7.7025 21.69875 8 19 C-0.25 19 -8.5 19 -17 19 Z " fill="#D78656" transform="translate(29,13)"/>
<path d="M0 0 C2.5625 1.375 2.5625 1.375 4 3 C4 3.66 4 4.32 4 5 C6.475 5.495 6.475 5.495 9 6 C8.835 6.763125 8.67 7.52625 8.5 8.3125 C7.90854604 11.03596236 7.90854604 11.03596236 8 14 C7.16227051 13.98952637 6.32454102 13.97905273 5.46142578 13.96826172 C2.35661836 13.93419981 -0.74809392 13.90911089 -3.85302734 13.89013672 C-5.8591136 13.87511893 -7.86511324 13.84971019 -9.87109375 13.82421875 C-11.75634766 13.81455078 -11.75634766 13.81455078 -13.6796875 13.8046875 C-14.84226074 13.79421387 -16.00483398 13.78374023 -17.20263672 13.77294922 C-20.13910279 13.70738003 -20.13910279 13.70738003 -22 16 C-21.8097328 7.90499548 -21.8097328 7.90499548 -18.875 4.625 C-12.54226755 1.04562949 -7.30394798 -1.07162171 0 0 Z " fill="#E37A42" transform="translate(29,13)"/>
<path d="M0 0 C3.43632231 1.14544077 4.33471585 2.2711508 6.625 5 C7.23601562 5.721875 7.84703125 6.44375 8.4765625 7.1875 C9.23066406 8.0846875 9.23066406 8.0846875 10 9 C10.33 9.33 10.66 9.66 11 10 C11.33 7.03 11.66 4.06 12 1 C13.65 1 15.3 1 17 1 C17 7.27 17 13.54 17 20 C13 20 13 20 10.859375 18.25 C10.16328125 17.5075 9.4671875 16.765 8.75 16 C8.04359375 15.2575 7.3371875 14.515 6.609375 13.75 C5.81273438 12.88375 5.81273438 12.88375 5 12 C4.67 14.64 4.34 17.28 4 20 C2.34385343 20.38218767 0.67542976 20.71395102 -1 21 C-2 20 -2 20 -2.11352539 18.14233398 C-2.10828857 17.35157471 -2.10305176 16.56081543 -2.09765625 15.74609375 C-2.09443359 14.89208984 -2.09121094 14.03808594 -2.08789062 13.15820312 C-2.07951172 12.26037109 -2.07113281 11.36253906 -2.0625 10.4375 C-2.05798828 9.53580078 -2.05347656 8.63410156 -2.04882812 7.70507812 C-2.03700225 5.46998686 -2.0205222 3.23502563 -2 1 C-1.34 0.67 -0.68 0.34 0 0 Z " fill="#141619" transform="translate(78,19)"/>
<path d="M0 0 C1.39456452 0.00667256 2.78911118 0.01863093 4.18359375 0.03515625 C4.89451172 0.03966797 5.60542969 0.04417969 6.33789062 0.04882812 C8.09899388 0.06064761 9.86005411 0.07858362 11.62109375 0.09765625 C11.29109375 1.74765625 10.96109375 3.39765625 10.62109375 5.09765625 C7.65109375 5.09765625 4.68109375 5.09765625 1.62109375 5.09765625 C1.62109375 5.75765625 1.62109375 6.41765625 1.62109375 7.09765625 C4.26109375 7.09765625 6.90109375 7.09765625 9.62109375 7.09765625 C10.18359375 9.03515625 10.18359375 9.03515625 10.62109375 11.09765625 C9.62109375 12.09765625 9.62109375 12.09765625 7.7734375 12.1953125 C5.72265625 12.16276042 3.671875 12.13020833 1.62109375 12.09765625 C1.62109375 12.75765625 1.62109375 13.41765625 1.62109375 14.09765625 C4.92109375 14.42765625 8.22109375 14.75765625 11.62109375 15.09765625 C11.29109375 16.74765625 10.96109375 18.39765625 10.62109375 20.09765625 C8.30865583 20.12451037 5.99613105 20.14398466 3.68359375 20.16015625 C2.39582031 20.17175781 1.10804688 20.18335937 -0.21875 20.1953125 C-3.37890625 20.09765625 -3.37890625 20.09765625 -4.37890625 19.09765625 C-4.47727835 17.76722 -4.50969217 16.43172281 -4.51171875 15.09765625 C-4.51300781 14.29328125 -4.51429687 13.48890625 -4.515625 12.66015625 C-4.51175781 11.81453125 -4.50789063 10.96890625 -4.50390625 10.09765625 C-4.50777344 9.25203125 -4.51164062 8.40640625 -4.515625 7.53515625 C-4.51433594 6.73078125 -4.51304688 5.92640625 -4.51171875 5.09765625 C-4.51059082 4.35515625 -4.50946289 3.61265625 -4.50830078 2.84765625 C-4.26744179 -0.40984797 -3.34355531 0.09663455 0 0 Z " fill="#020205" transform="translate(127.37890625,19.90234375)"/>
<path d="M0 0 C2.56628252 1.95847877 3.72916635 3.33194367 4.9375 6.3125 C5.02785389 10.19771706 3.8747289 12.62548799 2 16 C-0.70986468 18.27042717 -2.45183064 18.91835776 -5.9375 19.4375 C-9.8124426 18.88393677 -11.95425348 17.40826469 -15 15 C-16.74604774 11.50790452 -16.7087477 7.79967517 -16 4 C-11.55839683 -2.00178657 -6.61839229 -2.43835505 0 0 Z M-9.375 4 C-11.27206824 5.9727942 -11.27206824 5.9727942 -11.375 9.0625 C-11.28930236 12.11861241 -11.28930236 12.11861241 -9 14 C-6 14.33333333 -6 14.33333333 -3 14 C-0.58878141 12.04366025 -0.58878141 12.04366025 -0.875 8.375 C-0.91625 7.26125 -0.9575 6.1475 -1 5 C-5.13315754 3.09590749 -5.13315754 3.09590749 -9.375 4 Z " fill="#202226" transform="translate(179,21)"/>
<path d="M0 0 C1.65 0 3.3 0 5 0 C5.33 1.65 5.66 3.3 6 5 C6.70125 4.175 7.4025 3.35 8.125 2.5 C11 0 11 0 14.3125 -0.3125 C15.199375 -0.209375 16.08625 -0.10625 17 0 C15.44499019 3.81684226 12.96404505 6.19195732 10 9 C10.5053125 9.54269531 11.010625 10.08539063 11.53125 10.64453125 C12.1809375 11.35996094 12.830625 12.07539062 13.5 12.8125 C14.1496875 13.52019531 14.799375 14.22789063 15.46875 14.95703125 C17 17 17 17 17 20 C13.4257023 19.67506385 11.44287547 19.36129314 8.625 17.0625 C7 15 7 15 7 13 C6.34 13 5.68 13 5 13 C5 14.98 5 16.96 5 19 C3.0625 19.5625 3.0625 19.5625 1 20 C0 19 0 19 -0.11352539 17.14233398 C-0.10828857 16.35157471 -0.10305176 15.56081543 -0.09765625 14.74609375 C-0.09443359 13.89208984 -0.09121094 13.03808594 -0.08789062 12.15820312 C-0.07951172 11.26037109 -0.07113281 10.36253906 -0.0625 9.4375 C-0.05798828 8.53580078 -0.05347656 7.63410156 -0.04882812 6.70507812 C-0.03700225 4.46998686 -0.0205222 2.23502563 0 0 Z " fill="#121417" transform="translate(101,20)"/>
<path d="M0 0 C3 1 3 1 4.07495117 2.62646484 C4.39439697 3.31434082 4.71384277 4.0022168 5.04296875 4.7109375 C5.39423828 5.46117187 5.74550781 6.21140625 6.10742188 6.984375 C6.64206055 8.16773438 6.64206055 8.16773438 7.1875 9.375 C7.55552734 10.15617187 7.92355469 10.93734375 8.30273438 11.7421875 C11 17.58709705 11 17.58709705 11 21 C6.125 20.125 6.125 20.125 5 19 C3.48530552 18.76807135 1.96245438 18.58784762 0.4375 18.4375 C-0.38878906 18.35371094 -1.21507812 18.26992188 -2.06640625 18.18359375 C-3.02353516 18.09271484 -3.02353516 18.09271484 -4 18 C-4.33 18.99 -4.66 19.98 -5 21 C-6.32 21 -7.64 21 -9 21 C-8.38367054 16.04001528 -6.20164371 12.06328034 -3.9375 7.6875 C-3.37192383 6.57665039 -3.37192383 6.57665039 -2.79492188 5.44335938 C-1.86871843 3.62612478 -0.93509371 1.81267596 0 0 Z M0 10 C-0.33 10.99 -0.66 11.98 -1 13 C0.32 12.67 1.64 12.34 3 12 C2.67 11.34 2.34 10.68 2 10 C1.34 10 0.68 10 0 10 Z " fill="#191C1F" transform="translate(60,19)"/>
<path d="M0 0 C0.99 0 1.98 0 3 0 C3 0.99 3 1.98 3 3 C4.98 3 6.96 3 9 3 C8.70554242 6.43533844 7.98263518 8.02298284 5.875 10.8125 C3 13 3 13 -0.5 13.5625 C-4.56847602 12.90863778 -6.22388652 12.02106467 -9 9 C-9.875 6.3125 -9.875 6.3125 -10 4 C-9 3 -9 3 -5.5625 2.5625 C-1.95941003 2.35152449 -1.95941003 2.35152449 0 0 Z " fill="#D3814F" transform="translate(25,35)"/>
<path d="M0 0 C5.61 0 11.22 0 17 0 C16.67 1.65 16.34 3.3 16 5 C14.35 5 12.7 5 11 5 C11 9.62 11 14.24 11 19 C9.35 19.33 7.7 19.66 6 20 C6 15.05 6 10.1 6 5 C4.35 5 2.7 5 1 5 C0.67 3.35 0.34 1.7 0 0 Z " fill="#1A1E22" transform="translate(143,20)"/>
<path d="M0 0 C0.33 1.65 0.66 3.3 1 5 C-7.91 5 -16.82 5 -26 5 C-25.34 4.67 -24.68 4.34 -24 4 C-23.34786708 1.97536745 -23.34786708 1.97536745 -23 0 C-15.87241456 -2.5342526 -6.83146712 -3.97902997 0 0 Z " fill="#EE7E3D" transform="translate(36,22)"/>
<path d="M0 0 C0.12375 0.61875 0.2475 1.2375 0.375 1.875 C0.87197356 4.19120832 0.87197356 4.19120832 3 6 C5.65537372 6.56520003 8.29144713 6.73788198 11 7 C11 7.33 11 7.66 11 8 C9.35 8.33 7.7 8.66 6 9 C13.92 9.33 21.84 9.66 30 10 C30 10.33 30 10.66 30 11 C21.75 11 13.5 11 5 11 C5.66 14.3 6.32 17.6 7 21 C6.67 22.32 6.34 23.64 6 25 C6 24.34 6 23.68 6 23 C5.34 23 4.68 23 4 23 C3.67 24.32 3.34 25.64 3 27 C2.80664062 25.79601562 2.61328125 24.59203125 2.4140625 23.3515625 C2.15146395 21.77597123 1.88841999 20.20045415 1.625 18.625 C1.49867187 17.8309375 1.37234375 17.036875 1.2421875 16.21875 C1.11328125 15.45820312 0.984375 14.69765625 0.8515625 13.9140625 C0.73635254 13.2123291 0.62114258 12.5105957 0.50244141 11.78759766 C0.0912785 9.7650146 0.0912785 9.7650146 -2 8 C-1.63723355 5.17042171 -0.90305236 2.70915709 0 0 Z " fill="#C88E62" transform="translate(7,21)"/>
<path d="M0 0 C1.5 1.1875 1.5 1.1875 3 3 C3.1875 5.6875 3.1875 5.6875 3 8 C1.02 8 -0.96 8 -3 8 C-3 8.66 -3 9.32 -3 10 C-10.59 10 -18.18 10 -26 10 C-26.33 9.34 -26.66 8.68 -27 8 C-25 6 -25 6 -22.66162109 5.77294922 C-21.70852051 5.78342285 -20.75541992 5.79389648 -19.7734375 5.8046875 C-18.2265625 5.81435547 -18.2265625 5.81435547 -16.6484375 5.82421875 C-15.02808594 5.84935547 -15.02808594 5.84935547 -13.375 5.875 C-12.28703125 5.88402344 -11.1990625 5.89304687 -10.078125 5.90234375 C-7.38519848 5.92596591 -4.69270745 5.95890444 -2 6 C-2.33 4.35 -2.66 2.7 -3 1 C-2.34 1.33 -1.68 1.66 -1 2 C-0.67 1.34 -0.34 0.68 0 0 Z " fill="#DA804B" transform="translate(39,21)"/>
<path d="M0 0 C2.97922593 -0.02683987 5.95821295 -0.04676037 8.9375 -0.0625 C9.78763672 -0.07087891 10.63777344 -0.07925781 11.51367188 -0.08789062 C12.32255859 -0.09111328 13.13144531 -0.09433594 13.96484375 -0.09765625 C14.7137085 -0.10289307 15.46257324 -0.10812988 16.23413086 -0.11352539 C18 0 18 0 19 1 C19 2.98 19 4.96 19 7 C15.04 7 11.08 7 7 7 C6.67 6.01 6.34 5.02 6 4 C5.67 4.99 5.34 5.98 5 7 C4.01 7 3.02 7 2 7 C1.34 4.69 0.68 2.38 0 0 Z M12 2 C13 5 13 5 13 5 Z " fill="#474D51" transform="translate(105,44)"/>
<path d="M0 0 C1.39456452 0.00667256 2.78911118 0.01863093 4.18359375 0.03515625 C4.89451172 0.03966797 5.60542969 0.04417969 6.33789062 0.04882812 C8.09899388 0.06064761 9.86005411 0.07858362 11.62109375 0.09765625 C11.29109375 1.74765625 10.96109375 3.39765625 10.62109375 5.09765625 C7.65109375 5.09765625 4.68109375 5.09765625 1.62109375 5.09765625 C1.62109375 5.75765625 1.62109375 6.41765625 1.62109375 7.09765625 C4.26109375 7.09765625 6.90109375 7.09765625 9.62109375 7.09765625 C9.62109375 7.42765625 9.62109375 7.75765625 9.62109375 8.09765625 C6.32109375 8.42765625 3.02109375 8.75765625 -0.37890625 9.09765625 C-0.37890625 7.11765625 -0.37890625 5.13765625 -0.37890625 3.09765625 C3.25109375 3.09765625 6.88109375 3.09765625 10.62109375 3.09765625 C10.62109375 2.43765625 10.62109375 1.77765625 10.62109375 1.09765625 C6.33109375 1.09765625 2.04109375 1.09765625 -2.37890625 1.09765625 C-2.37890625 7.03765625 -2.37890625 12.97765625 -2.37890625 19.09765625 C1.91109375 19.09765625 6.20109375 19.09765625 10.62109375 19.09765625 C10.62109375 19.42765625 10.62109375 19.75765625 10.62109375 20.09765625 C8.30865583 20.12451037 5.99613105 20.14398466 3.68359375 20.16015625 C2.39582031 20.17175781 1.10804688 20.18335937 -0.21875 20.1953125 C-3.37890625 20.09765625 -3.37890625 20.09765625 -4.37890625 19.09765625 C-4.47727835 17.76722 -4.50969217 16.43172281 -4.51171875 15.09765625 C-4.51300781 14.29328125 -4.51429687 13.48890625 -4.515625 12.66015625 C-4.51175781 11.81453125 -4.50789063 10.96890625 -4.50390625 10.09765625 C-4.50777344 9.25203125 -4.51164062 8.40640625 -4.515625 7.53515625 C-4.51433594 6.73078125 -4.51304688 5.92640625 -4.51171875 5.09765625 C-4.51059082 4.35515625 -4.50946289 3.61265625 -4.50830078 2.84765625 C-4.26744179 -0.40984797 -3.34355531 0.09663455 0 0 Z " fill="#494F54" transform="translate(127.37890625,19.90234375)"/>
<path d="M0 0 C7 0 7 0 10.3125 0.5625 C13.65958242 0.95961147 15.78173622 0.75723854 19 0 C20 1 20 1 20.0625 3.5625 C20.041875 4.366875 20.02125 5.17125 20 6 C15.500142 6.99996845 11.48889697 7.13029453 6.9375 6.4375 C3.10258195 5.73299592 3.10258195 5.73299592 0 7 C0 4.69 0 2.38 0 0 Z M8 2 C8 2.66 8 3.32 8 4 C8.66 4 9.32 4 10 4 C10 3.34 10 2.68 10 2 C9.34 2 8.68 2 8 2 Z M16 2 C16 2.66 16 3.32 16 4 C16.66 4 17.32 4 18 4 C18 3.34 18 2.68 18 2 C17.34 2 16.68 2 16 2 Z " fill="#1C232D" transform="translate(51,44)"/>
<path d="M0 0 C3.25511789 0.56122722 4.99840071 1.33120095 7 4 C8.3830181 7.55633225 7.99719951 9.00826145 6.75 12.6875 C5 16 5 16 2 18 C-0.33199388 18.07905064 -2.66832622 18.08798769 -5 18 C-3.625 16.5 -3.625 16.5 -2 15 C-1.34 15 -0.68 15 0 15 C1.17353189 11.47940432 1.20146402 8.693507 1 5 C0.34 4.34 -0.32 3.68 -1 3 C-0.67 2.01 -0.34 1.02 0 0 Z " fill="#131518" transform="translate(176,21)"/>
<path d="M0 0 C0.66 0 1.32 0 2 0 C2 0.66 2 1.32 2 2 C2.66 2 3.32 2 4 2 C4.33 2.66 4.66 3.32 5 4 C11.27 4.33 17.54 4.66 24 5 C24 5.99 24 6.98 24 8 C20.56257082 8.05802698 17.12526747 8.09360486 13.6875 8.125 C12.71103516 8.14175781 11.73457031 8.15851562 10.72851562 8.17578125 C9.79072266 8.18222656 8.85292969 8.18867187 7.88671875 8.1953125 C7.02264404 8.20578613 6.15856934 8.21625977 5.26831055 8.22705078 C3 8 3 8 0 6 C-0.1875 2.875 -0.1875 2.875 0 0 Z " fill="#CD7C50" transform="translate(11,44)"/>
<path d="M0 0 C0.66 0.33 1.32 0.66 2 1 C1.34 1.66 0.68 2.32 0 3 C-0.268125 3.825 -0.53625 4.65 -0.8125 5.5 C-2.34312167 8.72236142 -3.74691614 8.83222631 -7 10 C-7.33 10.99 -7.66 11.98 -8 13 C-8.99 13.33 -9.98 13.66 -11 14 C-11.66 14.66 -12.32 15.32 -13 16 C-12.8097328 7.90499548 -12.8097328 7.90499548 -9.875 4.625 C-6.6032247 2.7757357 -3.54230838 1.26988414 0 0 Z " fill="#DD8044" transform="translate(20,13)"/>
<path d="M0 0 C2.1640625 -0.29296875 2.1640625 -0.29296875 4.625 -0.1875 C5.44226563 -0.16042969 6.25953125 -0.13335938 7.1015625 -0.10546875 C8.04128906 -0.05326172 8.04128906 -0.05326172 9 0 C8.67 1.32 8.34 2.64 8 4 C5.36 4 2.72 4 0 4 C0 4.66 0 5.32 0 6 C3.3 6.33 6.6 6.66 10 7 C9.67 8.32 9.34 9.64 9 11 C9 10.34 9 9.68 9 9 C8.28972656 9.01160156 7.57945312 9.02320313 6.84765625 9.03515625 C5.92855469 9.04417969 5.00945312 9.05320312 4.0625 9.0625 C3.14597656 9.07410156 2.22945312 9.08570313 1.28515625 9.09765625 C-1 9 -1 9 -2 8 C-2.29386153 4.27775401 -2.14809171 3.22213757 0 0 Z " fill="#1E2125" transform="translate(129,28)"/>
<path d="M0 0 C3.80661338 0.5286963 6.21109466 1.30726381 9 4 C10.7829914 7.38768366 11.41257 10.18372747 11 14 C10.34 14.66 9.68 15.32 9 16 C8.3162387 18.88717605 8.3162387 18.88717605 7.875 22.125 C7.70742188 23.22070312 7.53984375 24.31640625 7.3671875 25.4453125 C7.18542969 26.70988281 7.18542969 26.70988281 7 28 C6.67 28 6.34 28 6 28 C5.94576362 26.08364783 5.90710037 24.16685075 5.875 22.25 C5.85179687 21.18265625 5.82859375 20.1153125 5.8046875 19.015625 C5.99897534 16.01582079 6.61640533 14.58866099 8 12 C7.69196545 8.81477796 7.69196545 8.81477796 7 6 C5.68 6 4.36 6 3 6 C3.33 5.34 3.66 4.68 4 4 C2.8509288 2.7018576 2.8509288 2.7018576 0 2 C0 1.34 0 0.68 0 0 Z " fill="#CE8C63" transform="translate(33,16)"/>
<path d="M0 0 C3 0 6 0 9 0 C9 1.32 9 2.64 9 4 C9.66 4 10.32 4 11 4 C11 4.99 11 5.98 11 7 C7.37 7 3.74 7 0 7 C0 4.69 0 2.38 0 0 Z " fill="#3D434D" transform="translate(90,44)"/>
<path d="M0 0 C3.63 0 7.26 0 11 0 C11 2.66666667 11 5.33333333 11 8 C8.69 8 6.38 8 4 8 C2.875 3.25 2.875 3.25 4 1 C3.01 1.33 2.02 1.66 1 2 C0.67 1.34 0.34 0.68 0 0 Z " fill="#E18141" transform="translate(17,40)"/>
<path d="M0 0 C0 0.99 0 1.98 0 3 C-6.27 3 -12.54 3 -19 3 C-19.33 2.34 -19.66 1.68 -20 1 C-17.04170322 0.832662 -14.08336635 0.66609948 -11.125 0.5 C-9.86236328 0.42845703 -9.86236328 0.42845703 -8.57421875 0.35546875 C-7.76855469 0.31035156 -6.96289062 0.26523437 -6.1328125 0.21875 C-5.38918457 0.17685547 -4.64555664 0.13496094 -3.87939453 0.09179688 C-2.58744125 0.0286929 -1.29349349 0 0 0 Z " fill="#D97745" transform="translate(35,49)"/>
<path d="M0 0 C2.375 -0.125 2.375 -0.125 5 0 C5.66 0.66 6.32 1.32 7 2 C6.46428571 5.53571429 6.46428571 5.53571429 5 7 C3.33382885 7.04063832 1.66611905 7.042721 0 7 C0 4.69 0 2.38 0 0 Z M3 2 C4 4 4 4 4 4 Z " fill="#1C2327" transform="translate(72,44)"/>
<path d="M0 0 C2.64 0 5.28 0 8 0 C8 2.31 8 4.62 8 7 C7.34 6.01 6.68 5.02 6 4 C5.67 4.99 5.34 5.98 5 7 C4.01 7 3.02 7 2 7 C1.34 4.69 0.68 2.38 0 0 Z " fill="#2E4248" transform="translate(105,44)"/>
<path d="M0 0 C1.66611905 -0.042721 3.33382885 -0.04063832 5 0 C6 1 6 1 6.125 3.5 C6 6 6 6 5 7 C3.33382885 7.04063832 1.66611905 7.042721 0 7 C0 4.69 0 2.38 0 0 Z M3 2 C4 4 4 4 4 4 Z " fill="#30373D" transform="translate(83,44)"/>
<path d="M0 0 C3.63 0 7.26 0 11 0 C11 0.66 11 1.32 11 2 C8.03 2 5.06 2 2 2 C2 2.66 2 3.32 2 4 C4.64 4 7.28 4 10 4 C10 4.33 10 4.66 10 5 C6.7 5.33 3.4 5.66 0 6 C0 4.02 0 2.04 0 0 Z " fill="#6D7073" transform="translate(127,23)"/>
<path d="M0 0 C0.66 0.33 1.32 0.66 2 1 C1.34 1.66 0.68 2.32 0 3 C-0.70710678 4.64991582 -1.37943989 6.31562256 -2 8 C-4.31 8.33 -6.62 8.66 -9 9 C-8.01 8.01 -7.02 7.02 -6 6 C-6.99 5.34 -7.98 4.68 -9 4 C-7.54618103 3.30300448 -6.08677047 2.61766134 -4.625 1.9375 C-3.40683594 1.36322266 -3.40683594 1.36322266 -2.1640625 0.77734375 C-1.44992188 0.52082031 -0.73578125 0.26429687 0 0 Z " fill="#D38557" transform="translate(20,13)"/>
<path d="M0 0 C2.625 0.375 2.625 0.375 5 1 C4.67 1.99 4.34 2.98 4 4 C4.33 4.66 4.66 5.32 5 6 C2.36 6 -0.28 6 -3 6 C-2.42655063 3.13275314 -2.1385485 2.1385485 0 0 Z " fill="#E37738" transform="translate(22,13)"/>
<path d="M0 0 C0.99 0 1.98 0 3 0 C4.4606285 2.64738916 5 3.89448334 5 7 C2.69 7 0.38 7 -2 7 C-1.42415568 4.61435923 -0.77772405 2.33317216 0 0 Z " fill="#2C3236" transform="translate(136,44)"/>
<path d="M0 0 C1.65 0 3.3 0 5 0 C5.33 1.32 5.66 2.64 6 4 C2.25 7 2.25 7 0 7 C0 4.69 0 2.38 0 0 Z " fill="#2B313B" transform="translate(148,44)"/>
<path d="M0 0 C1.98 0 3.96 0 6 0 C5.34 2.31 4.68 4.62 4 7 C3.01 7 2.02 7 1 7 C0.67 4.69 0.34 2.38 0 0 Z " fill="#303840" transform="translate(125,44)"/>
<path d="M0 0 C1.65 0 3.3 0 5 0 C5 1.65 5 3.3 5 5 C4.01 5 3.02 5 2 5 C2 5.66 2 6.32 2 7 C1.34 7 0.68 7 0 7 C0 4.69 0 2.38 0 0 Z " fill="#171F26" transform="translate(142,44)"/>
<path d="M0 0 C1.32 0 2.64 0 4 0 C4 2.31 4 4.62 4 7 C2.68 7 1.36 7 0 7 C0 4.69 0 2.38 0 0 Z " fill="#1E2129" transform="translate(113,44)"/>
<path d="M0 0 C0.33 0 0.66 0 1 0 C1.33 3.63 1.66 7.26 2 11 C1.67 10.34 1.34 9.68 1 9 C0.34 9 -0.32 9 -1 9 C-1.33 10.32 -1.66 11.64 -2 13 C-2.05447047 11.58376784 -2.09300508 10.16691809 -2.125 8.75 C-2.14820313 7.96109375 -2.17140625 7.1721875 -2.1953125 6.359375 C-1.9828378 3.79268059 -1.28654105 2.2083933 0 0 Z " fill="#BD8C68" transform="translate(12,35)"/>
<path d="M0 0 C0.99 0.99 1.98 1.98 3 3 C2.690625 4.03125 2.38125 5.0625 2.0625 6.125 C1.12497188 9.38972557 0.49227298 12.63613462 0 16 C-0.33 16 -0.66 16 -1 16 C-1.02712153 14.083412 -1.04645097 12.1667127 -1.0625 10.25 C-1.07410156 9.18265625 -1.08570313 8.1153125 -1.09765625 7.015625 C-1.01510087 4.46631499 -0.74617558 2.42066409 0 0 Z " fill="#C99473" transform="translate(40,28)"/>
<path d="M0 0 C0.66 0 1.32 0 2 0 C1.4739075 3.78786597 0.61896089 6.17152224 -2 9 C-2.66 9 -3.32 9 -4 9 C-4 7.68 -4 6.36 -4 5 C-3.01 4.67 -2.02 4.34 -1 4 C-1.33 3.34 -1.66 2.68 -2 2 C-1.34 2 -0.68 2 0 2 C0 1.34 0 0.68 0 0 Z " fill="#CA9178" transform="translate(32,38)"/>
<path d="M0 0 C-1 2 -1 2 -3 3 C-5.3494053 2.39239518 -7.68529088 1.72870472 -10 1 C-6.1496895 -1.56687367 -4.41430237 -0.83288724 0 0 Z " fill="#E37C40" transform="translate(38,19)"/>
<path d="M0 0 C0.66 0 1.32 0 2 0 C2 1.32 2 2.64 2 4 C2.66 4 3.32 4 4 4 C4 4.99 4 5.98 4 7 C2.68 7 1.36 7 0 7 C0 4.69 0 2.38 0 0 Z " fill="#20262F" transform="translate(97,44)"/>
<path d="M0 0 C0.66 0 1.32 0 2 0 C2.33 2.64 2.66 5.28 3 8 C2.01 8.66 1.02 9.32 0 10 C0 6.7 0 3.4 0 0 Z " fill="#DA7A43" transform="translate(9,30)"/>
<path d="M0 0 C4.75 0.75 4.75 0.75 7 3 C5.02 3.99 5.02 3.99 3 5 C2.01 4.34 1.02 3.68 0 3 C0 2.01 0 1.02 0 0 Z " fill="#D98852" transform="translate(25,13)"/>
<path d="M0 0 C2.13671875 0.390625 2.13671875 0.390625 4 1 C2.8803014 2.00593243 1.7540588 3.0045849 0.625 4 C-0.00148438 4.556875 -0.62796875 5.11375 -1.2734375 5.6875 C-3 7 -3 7 -5 7 C-3.86873442 3.60620325 -2.77333918 2.21867135 0 0 Z " fill="#35383D" transform="translate(112,20)"/>
<path d="M0 0 C2.475 0.495 2.475 0.495 5 1 C5 1.99 5 2.98 5 4 C3.35 4 1.7 4 0 4 C0 2.68 0 1.36 0 0 Z " fill="#161B22" transform="translate(119,44)"/>
<path d="M0 0 C0.33 0.99 0.66 1.98 1 3 C1.66 3 2.32 3 3 3 C3.33 3.99 3.66 4.98 4 6 C3.01 6.33 2.02 6.66 1 7 C0.34 7.66 -0.32 8.32 -1 9 C-0.67 6.03 -0.34 3.06 0 0 Z " fill="#E1884F" transform="translate(8,20)"/>
<path d="M0 0 C1.65 0.33 3.3 0.66 5 1 C3.75 2.5 3.75 2.5 2 4 C0.68 4 -0.64 4 -2 4 C-1.34 2.68 -0.68 1.36 0 0 Z " fill="#EA803E" transform="translate(22,13)"/>
<path d="M0 0 C1.65 0.33 3.3 0.66 5 1 C4.67 1.99 4.34 2.98 4 4 C3.67 3.34 3.34 2.68 3 2 C2.34 2 1.68 2 1 2 C1 2.66 1 3.32 1 4 C0.34 4 -0.32 4 -1 4 C-0.67 2.68 -0.34 1.36 0 0 Z " fill="#11171E" transform="translate(66,44)"/>
<path d="M0 0 C0.66 0 1.32 0 2 0 C2 2.31 2 4.62 2 7 C1.34 7 0.68 7 0 7 C0 4.69 0 2.38 0 0 Z " fill="#1D262B" transform="translate(102,44)"/>
</svg>
