<?xml version="1.0" encoding="UTF-8"?>
<svg version="1.1" xmlns="http://www.w3.org/2000/svg" width="45" height="74">
<path d="M0 0 C0.99 0.66 1.98 1.32 3 2 C3.969375 2.309375 4.93875 2.61875 5.9375 2.9375 C9.98003378 4.34001172 12.23286807 5.54244933 14.25 9.375 C15.03047023 12.1066458 15.30513096 14.17753866 15 17 C14.34 17.66 13.68 18.32 13 19 C12.29663541 22.59047368 11.74035193 26.16938419 11.23242188 29.79101562 C11.05743164 30.9134668 11.05743164 30.9134668 10.87890625 32.05859375 C10.73304077 33.08424438 10.73304077 33.08424438 10.58422852 34.13061523 C9.83351207 36.53271962 9.03379583 37.51609278 7 39 C3.38500337 39.63599654 -0.27283494 39.46332403 -3.9375 39.4375 C-5.44086914 39.4674707 -5.44086914 39.4674707 -6.97460938 39.49804688 C-14.14164006 39.49326567 -14.14164006 39.49326567 -17.58984375 37.51171875 C-19.60760901 33.91774906 -20.09458644 30.42790358 -20.625 26.375 C-21.12267288 20.67680454 -21.12267288 20.67680454 -24 16 C-23.61644958 11.26954482 -21.71954596 7.59672125 -18.25 4.375 C-12.25563217 0.71177522 -7.05904883 -1.05338519 0 0 Z M-17 19 C-16.71125 21.248125 -16.4225 23.49625 -16.125 25.8125 C-15.96257813 27.07707031 -15.80015625 28.34164062 -15.6328125 29.64453125 C-15.20431547 33.11699317 -15.20431547 33.11699317 -13 36 C-10.08669922 36.24869641 -7.40579705 36.32634278 -4.5 36.25 C-3.32244141 36.24226563 -3.32244141 36.24226563 -2.12109375 36.234375 C2.07407825 36.26650036 2.07407825 36.26650036 6 35 C6.47721984 32.28691681 6.83986541 29.67026185 7.125 26.9375 C7.41375 24.318125 7.7025 21.69875 8 19 C-0.25 19 -8.5 19 -17 19 Z " fill="#D18658" transform="translate(29,13)"/>
<path d="M0 0 C2.5625 1.375 2.5625 1.375 4 3 C4 3.66 4 4.32 4 5 C6.475 5.495 6.475 5.495 9 6 C8.835 6.763125 8.67 7.52625 8.5 8.3125 C7.90854604 11.03596236 7.90854604 11.03596236 8 14 C7.16227051 13.98952637 6.32454102 13.97905273 5.46142578 13.96826172 C2.35661836 13.93419981 -0.74809392 13.90911089 -3.85302734 13.89013672 C-5.8591136 13.87511893 -7.86511324 13.84971019 -9.87109375 13.82421875 C-11.75634766 13.81455078 -11.75634766 13.81455078 -13.6796875 13.8046875 C-14.84226074 13.79421387 -16.00483398 13.78374023 -17.20263672 13.77294922 C-20.13910279 13.70738003 -20.13910279 13.70738003 -22 16 C-21.8097328 7.90499548 -21.8097328 7.90499548 -18.875 4.625 C-12.54226755 1.04562949 -7.30394798 -1.07162171 0 0 Z " fill="#E47B41" transform="translate(29,13)"/>
<path d="M0 0 C9.24 0 18.48 0 28 0 C27.896875 3.238125 27.79375 6.47625 27.6875 9.8125 C27.65015747 11.33774292 27.65015747 11.33774292 27.61206055 12.89379883 C27.57894775 13.69841553 27.54583496 14.50303223 27.51171875 15.33203125 C27.48553467 16.15421143 27.45935059 16.9763916 27.43237305 17.82348633 C26.89385328 20.53432974 26.26854497 21.43164627 24 23 C21.6875 23.37231445 21.6875 23.37231445 19 23.36328125 C18.030625 23.36263672 17.06125 23.36199219 16.0625 23.36132812 C14.5465625 23.3371582 14.5465625 23.3371582 13 23.3125 C11.989375 23.31572266 10.97875 23.31894531 9.9375 23.32226562 C2.40071429 23.26714286 2.40071429 23.26714286 -1 21 C-1.1875 17.875 -1.1875 17.875 -1 15 C-0.34 15 0.32 15 1 15 C1 15.66 1 16.32 1 17 C1.66 17 2.32 17 3 17 C3.33 17.66 3.66 18.32 4 19 C10.27 19 16.54 19 23 19 C23.2165625 15.90625 23.2165625 15.90625 23.4375 12.75 C23.70191021 8.9727113 24.07848349 5.68606605 25 2 C17.08 2 9.16 2 1 2 C0.67 1.34 0.34 0.68 0 0 Z " fill="#D97D46" transform="translate(12,29)"/>
<path d="M0 0 C0.99 0 1.98 0 3 0 C3 0.99 3 1.98 3 3 C4.98 3 6.96 3 9 3 C8.70554242 6.43533844 7.98263518 8.02298284 5.875 10.8125 C3 13 3 13 -0.5 13.5625 C-4.56847602 12.90863778 -6.22388652 12.02106467 -9 9 C-9.875 6.3125 -9.875 6.3125 -10 4 C-9 3 -9 3 -5.5625 2.5625 C-1.95941003 2.35152449 -1.95941003 2.35152449 0 0 Z " fill="#E48143" transform="translate(25,35)"/>
<path d="M0 0 C0.33 1.65 0.66 3.3 1 5 C-7.91 5 -16.82 5 -26 5 C-25.34 4.67 -24.68 4.34 -24 4 C-23.34786708 1.97536745 -23.34786708 1.97536745 -23 0 C-15.87241456 -2.5342526 -6.83146712 -3.97902997 0 0 Z " fill="#EE7D3D" transform="translate(36,22)"/>
<path d="M0 0 C0.66 0.33 1.32 0.66 2 1 C1.34 1.66 0.68 2.32 0 3 C-0.268125 3.825 -0.53625 4.65 -0.8125 5.5 C-2.34312167 8.72236142 -3.74691614 8.83222631 -7 10 C-7.33 10.99 -7.66 11.98 -8 13 C-8.99 13.33 -9.98 13.66 -11 14 C-11.66 14.66 -12.32 15.32 -13 16 C-12.8097328 7.90499548 -12.8097328 7.90499548 -9.875 4.625 C-6.6032247 2.7757357 -3.54230838 1.26988414 0 0 Z " fill="#DD7F43" transform="translate(20,13)"/>
<path d="M0 0 C0.99 0 1.98 0 3 0 C3 0.99 3 1.98 3 3 C4.98 3 6.96 3 9 3 C8.4739075 6.78786597 7.61896089 9.17152224 5 12 C4.34 12 3.68 12 3 12 C3 10.68 3 9.36 3 8 C3.99 7.67 4.98 7.34 6 7 C1.34500026 6.18537505 -3.30976546 5.56606279 -8 5 C-8.33 6.32 -8.66 7.64 -9 9 C-9.38218767 7.34385343 -9.71395102 5.67542976 -10 4 C-9 3 -9 3 -5.5625 2.5625 C-1.95941003 2.35152449 -1.95941003 2.35152449 0 0 Z " fill="#D28251" transform="translate(25,35)"/>
<path d="M0 0 C0.66 0.33 1.32 0.66 2 1 C2.125 3.375 2.125 3.375 2 6 C1.34 6.66 0.68 7.32 0 8 C-0.6837613 10.88717605 -0.6837613 10.88717605 -1.125 14.125 C-1.29257812 15.22070312 -1.46015625 16.31640625 -1.6328125 17.4453125 C-1.75398438 18.28835937 -1.87515625 19.13140625 -2 20 C-2.33 20 -2.66 20 -3 20 C-3.33452052 12.56621057 -3.13902852 6.80122845 0 0 Z " fill="#C99370" transform="translate(42,24)"/>
<path d="M0 0 C0.66 0.33 1.32 0.66 2 1 C1.34 1.66 0.68 2.32 0 3 C-0.70710678 4.64991582 -1.37943989 6.31562256 -2 8 C-4.31 8.33 -6.62 8.66 -9 9 C-8.01 8.01 -7.02 7.02 -6 6 C-6.99 5.34 -7.98 4.68 -9 4 C-7.54618103 3.30300448 -6.08677047 2.61766134 -4.625 1.9375 C-3.40683594 1.36322266 -3.40683594 1.36322266 -2.1640625 0.77734375 C-1.44992188 0.52082031 -0.73578125 0.26429687 0 0 Z " fill="#D38557" transform="translate(20,13)"/>
<path d="M0 0 C2.625 0.375 2.625 0.375 5 1 C5 2.66666667 5 4.33333333 5 6 C2.36 6 -0.28 6 -3 6 C-2.42655063 3.13275314 -2.1385485 2.1385485 0 0 Z " fill="#E37738" transform="translate(22,13)"/>
<path d="M0 0 C1.98 0.99 1.98 0.99 4 2 C3.67 2.66 3.34 3.32 3 4 C4.98 3.67 6.96 3.34 9 3 C9 3.66 9 4.32 9 5 C9.66 5.66 10.32 6.32 11 7 C4.70786517 7.36300778 4.70786517 7.36300778 1.5625 5.75 C0 4 0 4 0 0 Z " fill="#D37E47" transform="translate(17,41)"/>
<path d="M0 0 C3.79039882 0.52644428 6.21815268 1.31750437 9 4 C9.75 6.1875 9.75 6.1875 10 8 C9.34 8 8.68 8 8 8 C7.67 7.34 7.34 6.68 7 6 C5.68 6 4.36 6 3 6 C3.33 5.34 3.66 4.68 4 4 C2.8509288 2.7018576 2.8509288 2.7018576 0 2 C0 1.34 0 0.68 0 0 Z " fill="#CF8A60" transform="translate(33,16)"/>
<path d="M0 0 C0.33 0 0.66 0 1 0 C1.33 3.63 1.66 7.26 2 11 C1.67 10.34 1.34 9.68 1 9 C0.34 9 -0.32 9 -1 9 C-1.33 10.32 -1.66 11.64 -2 13 C-2.05447047 11.58376784 -2.09300508 10.16691809 -2.125 8.75 C-2.14820313 7.96109375 -2.17140625 7.1721875 -2.1953125 6.359375 C-1.9828378 3.79268059 -1.28654105 2.2083933 0 0 Z " fill="#BD8C68" transform="translate(12,35)"/>
<path d="M0 0 C0.66 0 1.32 0 2 0 C2 0.66 2 1.32 2 2 C2.66 2 3.32 2 4 2 C4.33 3.98 4.66 5.96 5 8 C2.525 7.01 2.525 7.01 0 6 C0 4.02 0 2.04 0 0 Z " fill="#CB7C53" transform="translate(11,44)"/>
<path d="M0 0 C0.33 0.99 0.66 1.98 1 3 C1.66 3 2.32 3 3 3 C3.33 2.34 3.66 1.68 4 1 C3.6875 3.375 3.6875 3.375 3 6 C2.01 6.66 1.02 7.32 0 8 C-0.66 7.67 -1.32 7.34 -2 7 C-2 6.01 -2 5.02 -2 4 C-1.34 4 -0.68 4 0 4 C0 2.68 0 1.36 0 0 Z " fill="#C78B65" transform="translate(35,44)"/>
<path d="M0 0 C0.33 0 0.66 0 1 0 C1.02694851 1.95825873 1.04637218 3.91662226 1.0625 5.875 C1.07410156 6.96554688 1.08570313 8.05609375 1.09765625 9.1796875 C1 12 1 12 0 14 C-0.66 14 -1.32 14 -2 14 C-1.03644647 4.58997722 -1.03644647 4.58997722 0 0 Z " fill="#E27C44" transform="translate(38,33)"/>
<path d="M0 0 C0.66 0 1.32 0 2 0 C1.4739075 3.78786597 0.61896089 6.17152224 -2 9 C-2.66 9 -3.32 9 -4 9 C-4 7.68 -4 6.36 -4 5 C-3.01 4.67 -2.02 4.34 -1 4 C-1.33 3.34 -1.66 2.68 -2 2 C-1.34 2 -0.68 2 0 2 C0 1.34 0 0.68 0 0 Z " fill="#CA9078" transform="translate(32,38)"/>
<path d="M0 0 C4.75 0.75 4.75 0.75 7 3 C5.35 3.66 3.7 4.32 2 5 C1.34 4.34 0.68 3.68 0 3 C0 2.01 0 1.02 0 0 Z " fill="#D98751" transform="translate(25,13)"/>
<path d="M0 0 C0.33 0.99 0.66 1.98 1 3 C1.66 3 2.32 3 3 3 C3.33 3.99 3.66 4.98 4 6 C3.01 6.33 2.02 6.66 1 7 C0.34 7.66 -0.32 8.32 -1 9 C-0.67 6.03 -0.34 3.06 0 0 Z " fill="#E1884E" transform="translate(8,20)"/>
<path d="M0 0 C1.65 0.33 3.3 0.66 5 1 C3.75 2.5 3.75 2.5 2 4 C0.68 4 -0.64 4 -2 4 C-1.34 2.68 -0.68 1.36 0 0 Z " fill="#EA803E" transform="translate(22,13)"/>
</svg>
